<?xml version="1.0" encoding="UTF-8"?>
<svg id="Lag_1" data-name="Lag 1" xmlns="http://www.w3.org/2000/svg" viewBox="0 0 622.25 188.3">
  <defs>
    <style>
      .cls-1 {
        letter-spacing: 0em;
      }

      .cls-2 {
        fill: #ccc;
      }

      .cls-3 {
        fill: #fff;
      }

      .cls-3, .cls-4, .cls-5, .cls-6, .cls-7, .cls-8 {
        stroke: #000;
        stroke-miterlimit: 10;
      }

      .cls-4, .cls-9 {
        fill: #29abe2;
      }

      .cls-9 {
        font-family: MyriadPro-Regular, 'Myriad Pro';
        font-size: 112.28px;
      }

      .cls-5 {
        fill: #c7b299;
      }

      .cls-6 {
        fill: none;
      }

      .cls-7 {
        fill: #8c6239;
      }

      .cls-8 {
        fill: #f4f0eb;
      }

      .cls-10 {
        letter-spacing: -.02em;
      }

      .cls-11 {
        letter-spacing: -.04em;
      }

      .cls-12 {
        letter-spacing: -.03em;
      }

      .cls-13 {
        letter-spacing: 0em;
      }
    </style>
  </defs>
  <path class="cls-5" d="M.71,110.79c.19-1.83.93-6.79,4.41-11.4,6.52-8.65,14.26-4.99,19.5-12.51,3.65-5.25.74-8.25,5.52-15.82.98-1.55,3.55-5.54,8.09-8.46,4.64-2.99,8.91-3.32,19.86-3.68,13.81-.46,20.71-.68,25.75-.44,13.98.67,21.09,1.09,26.85,4.86,1.88,1.23,8.26,5.41,9.93,12.51.49,2.1.09,2.41,0,8.74-.1,6.57.31,7.87.52,16.27.11,4.35-.04,2.27,0,14.71.04,13.03.07,19.55.1,19.86.22,2.42.41,3.49,0,5.15-.59,2.37-2.53,6.46-10.92,10.3-19.26,8.81-38.04.47-59.96,1.47-1.88.09-4.77.29-7.36-1.47-5.04-3.43-2.39-9.84-7.72-15.08-3.48-3.42-8.33-4.34-10.67-4.78-4.22-.8-4.62.28-8.46-.37-1.49-.25-9.66-1.63-13.61-8.46C-.02,117.76.45,113.21.71,110.79Z"/>
  <path d="M32,99.56c4.06,2.16,4.22,8.85,3.17,12.82-.43,1.62-1.6,6.04-5.63,7.61-4.03,1.56-9.11-.43-11.27-4.23-2.28-4.02-.33-8.35,0-9.09,2.38-5.28,9.3-9.48,13.73-7.11Z"/>
  <path d="M52.02,72.6c1.31-.27,3.33-.64,5.83-.93,3.19-.37,4.6-.31,8.69-.55,3.36-.2,2.35-.24,8.91-.74,5.13-.39,7.41-.5,9.75-.53,1.89-.03,1.51.03,3.92,0,5.82-.06,6.34-.35,8.48-.02,2.98.46,5.04,1.48,5.73,1.84,1.86.97,3.1,1.3,3.5,2.42.29.8.09,1.57,0,1.83-.97,2.84-8.59,3.05-15.18,3.18-5.4.11-8.52-.2-14.69,0-.58.02-1.85.06-3.63.09-3.23.06-4.68,0-7.42,0-7.5-.01-6.99.34-9.24.03-3.47-.48-3.3-1.14-6.96-1.57-3.99-.47-4.69.26-6.83-.59-.54-.22-4.43-1.82-5.14-5.39-.87-4.35,3.72-7.73,4.23-8.1,2.62-1.93,6.71-3,7.75-1.76.05.06.09.12.16.25.74,1.26.72,3.18-.16,3.63h0c-.71.35,1.46,4.59.49,5.99-.02.03-.19.27-.46.58,0,0-.47.54-.95.92-.85.68-1.42.21-3.11.91-.75.31-.71.43-1.77.88-.41.17-.58.22-.6.34-.03.23.52.63,2.97,1.37"/>
  <path class="cls-2" d="M80.14,19.4c3.8-3.69,8.35-5,10.68-5.67,3.73-1.07,3.94-.36,7.85-1.53,1.39-.41,3.17-1.04,9.15-4.14,7.46-3.87,6.85-4.01,9.81-5.23C120.78,1.53,124.33.06,129.18,0c1-.01,6.01-.01,11.55,2.62,4.74,2.25,8.1,5.58,9.59,7.08,1.74,1.75,1.74,2.09,3.1,3.17,3.5,2.76,5.44,2.02,8.69,4.26,3.33,2.29,4.79,5.47,5.19,6.39.36.81,2.04,4.59,1.19,8.52-2.05,9.52-17.76,14.68-23.93,15.07-.66.04-2.03.08-3.75.68-2.78.97-4.8,2.82-7.15,5.02-1.85,1.73-1.4,1.57-2.38,2.38-.92.75-3.17,2.42-10.35,4.09-3.93.91-3.46.46-5.49,1.11-2.36.75-5.69,1.81-8.18,4.6-2.79,3.12-3.44,7.2-4.51,6.98-.14-.03-.17-.11-.42-.33-.87-.77-1.9-.97-3.5-1.19-2.34-.32-3.64-.38-3.64-.38-3.46-.18-5.19-.28-6.78-.28-1.91,0-3.34.06-5.24.14-.89.04-1.13.06-4.44.24-5.25.3-5.36.3-6.61.38-3.01.21-2.57.23-5.31.42-4.29.29-4.55.17-6.37.46-2.3.37-2.34.64-4.44.86-2.08.22-2.55.02-4.02.45-1.08.32-1.53.64-1.96.38-.54-.31-.57-1.23-.42-3.46.16-2.32.22-3.48.49-4.86.34-1.71.65-3.3,1.61-5.2.81-1.62,1.72-2.73,2.45-3.61.25-.3,1.17-1.4,2.93-2.97,1.74-1.55,2.48-1.95,4.54-3.55,1.9-1.48,3.4-2.64,4.81-4.1,2.13-2.21,3.28-4.3,4.17-5.94,2.76-5.11,1.97-6.56,4.39-11.88,1.43-3.15,2.59-5.68,5.15-8.17Z"/>
  <path class="cls-5" d="M52.58,152.31c-1.54.23.25,9.2.21,15.75-.04,6.26-.06,9.39-.21,9.95-.13.46-.38,1.25,0,2.25.16.42.65,1.46,5.82,4.5,2.63,1.55,3.52,1.88,4.58,2.1.99.21,2.98.62,4.78,0,2.02-.7,2.25-2.18,2.28-2.4.17-1.32-1.41-2.32-2.78-3.22-2.07-1.37-2.97-1.16-4.28-2.25-1.22-1.02-1.45-2.05-1.77-3.61-.34-1.66-.13-2.53,0-4.66t0-5.48v-6.08c.45-1.9,1.23-3.24,0-3.91-.35-.19-1.43-.53-3.58-1.2-.43-.14-.84-.26-1.01-.53-.23-.35.16-.64-.13-1.21-.11-.23-.23-.3-.36-.33-.24-.06-.46.05-.92.12-.36.06-.48.03-1.05.06,0,0-.84.04-1.58.15Z"/>
  <path class="cls-5" d="M85.27,169.91c-3.67.8,1.4,7.33,0,11.9-.06.18-.18.56,0,1.05.7,1.87,5.05,2.94,7.65,3.58,2.95.73,4.6.76,5.5.74.94-.02,2.45-.06,3.47-.57,1.51-.77.67-1.99.6-2.09-.25-.34-.73-.74-3.59-1.82-3.12-1.17-3.41-1.02-4.31-1.49-1.25-.66-1.41-1.88-1.67-4.3-.26-2.38-.39-3.56.24-4.57.65-1.04,1.47-1.57.82-1.98-.55-.36-2.6-.39-6.68-.44-1.28-.02-1.92-.02-2.03,0Z"/>
  <path class="cls-4" d="M131.08,93.65c-2.15-1.66-11.35,4.84-26.5,16.41-.28.22-.99.76-2.06,1.11-1.63.54-2.62.16-4.7,0-2.44-.18-2.29.26-7.25.36,0,0-1.51.03-3.31,0-8.19-.14-31.2-10.92-32.44-8.9-.1.16.04.25,0,1.67-.03,1.22-.17,2.12-.2,2.37-.3,2.21-.35,8.42-.35,9.36-.06,8.33-.09,12.5,0,16.79.18,9.05.66,10.48.55,14.6-.06,2.32.56,4.66.21,6.95-.09.59-.28,1.61.27,2.5.54.86,1.43,1.06,2.74,1.58,1.37.54,2.6,1.4,3.92,2.06,4.47,2.23,4.68,2.48,8.28,4.25,5.17,2.55,4.13,1.74,8.64,3.97,3.23,1.6,5.38,2.82,8.7,3.08.38.03.49,0,2.58,0,3.17,0,4.83.05,5.44.05,2.43,0,4.58-.79,8.77-2.38,3.13-1.18,6.26-2.37,10.21-4.59,6.45-3.63,5.48-4.61,10.69-7.2,5.12-2.55,7.86-2.5,9.11-5.21.52-1.12.35-1.78,0-6.1-.28-3.54-.4-7.08-.62-10.62-.09-1.45-.34-5.75-.34-10.49-.01-8.03.68-10.72.41-17.89-.15-4-.32-2.08-.89-7.88-.07-.75-.22-2.36-1.03-4.25-.41-.97-.62-1.45-.83-1.62Z"/>
  <path class="cls-5" d="M44.87,112.78c-1.41.58-2.16,2.36-2.22,3.69-.05,1.02.25,2.89,6.28,7.57,2.34,1.82,5.29,4.08,10.08,6.46,4.68,2.33,8.32,3.37,10.41,3.88,4.63,1.13,8.22,1.96,10.34,0,1.14-1.06,1.85-2.92,1.29-4.25-.6-1.42-2.48-1.78-4.25-2.22-3.56-.88-6.89-2.5-10.34-3.75-5.01-1.81-8.61-4.06-10.88-5.48-6.24-3.91-8.44-6.85-10.73-5.91Z"/>
  <path class="cls-7" d="M90.2,112.61c-3.34,2.24-.53,8.77-.33,22.13.05,3.09-.17,7.45-.62,16.17-.24,4.65.05,9.32,0,13.98-.05,4.58-.12,5.84.9,6.93,3.53,3.77,14.74-.09,15.19-3.44.03-.19,0-.23,0-1.6,0-1.98.07-3.39.09-4.08.11-2.89.05-6.06,0-8.52-.06-3.34-.15-3.05-.24-6.7-.1-3.76-.02-4.24-.07-8.88-.07-5.53-.19-5.15-.22-9.61-.01-1.95-.01-4.81-.07-8.88-.09-5.71-.2-7-1.24-7.86-.53-.44-1.29-.76-6.27-.44-4.37.28-6.56.42-7.13.8Z"/>
  <path class="cls-5" d="M134.61,109.09c1.45-.39,3.48,1.58,4.25,3.52,1.16,2.9-.49,5.71-.92,6.45-1.41,2.41-3.49,3.38-7.02,5.02-3.23,1.5-5.04,2.35-6.46,1.44-1.36-.87-1.94-3.09-1.29-4.62.34-.81.93-1.19,2.95-2.4,4.67-2.79,4.52-2.53,4.98-2.95,2.81-2.58,1.76-5.99,3.52-6.46Z"/>
  <path class="cls-8" d="M95.06,94.86c1.82-4.09,14.53-4.44,16-1.42.66,1.35-1.04,3.13-1.38,3.49-3.8,3.99-13.12,3.07-14.62,0-.47-.97-.06-1.93,0-2.07Z"/>
  <path class="cls-3" d="M63.35,97.49c.25-1.75,5.47-2.39,8.5-2.44,3.02-.05,9.01.38,9.41,2.44.27,1.39-2.13,2.91-2.78,3.32-4.42,2.79-10.24,1.36-13.55-1.22-.83-.65-1.69-1.34-1.59-2.1Z"/>
  <path d="M100.19,98.5c-.34-1.34,3.17-4.15,4.76-3.29.75.41,1.15,1.68.79,2.66-.38,1.06-1.5,1.41-1.87,1.53-1.49.47-3.46-.03-3.68-.91Z"/>
  <path d="M68.99,101.29c-.46-1.76,5.17-4.73,7.04-3.8.97.49.9,2.01.65,2.82-.07.23-.55,1.73-2.32,2.36-2.2.78-5.08-.26-5.37-1.38Z"/>
  <path d="M84.97,100.95c-.1.6,1.07,1.34,1.87,1.68,1.92.82,3.83.28,4.76,0,1.19-.36,2.95-1.13,2.86-1.68-.05-.32-.73-.53-1.28-.5-.85.04-1.01.62-1.95,1.01-.82.34-2.07.46-3.06-.03-.59-.29-.88-.69-1.8-.98-.33-.11-.7-.18-1.01,0-.17.1-.36.29-.4.5Z"/>
  <path d="M86.38,95.69c-.27-.33-.03-1.08.41-1.48.6-.55,1.64-.47,2.27,0,.36.27.82.85.66,1.36-.09.29-.35.45-.44.5-.39.24-.65.09-2.4-.19-.25-.04-.4-.06-.5-.19Z"/>
  <path class="cls-6" d="M36.96,77.01c11.06,4.98,23.38,6.34,35.38,5.46,4.06-.3,8.11-.84,12.18-.84,6.76,0,13.73,1.48,20.13-.78,2.13-.76,4.45-2.5,4.18-4.85"/>
  <text class="cls-9" transform="translate(139.26 159.17) scale(.78 1)"><tspan class="cls-10" x="0" y="0">V</tspan><tspan class="cls-1" x="60.86" y="0">ind &amp;</tspan><tspan class="cls-11" x="304.5" y="0"> </tspan><tspan class="cls-12" x="324.27" y="0">V</tspan><tspan x="383.22" y="0">a</tspan><tspan class="cls-13" x="437.33" y="0">r</tspan><tspan x="474.5" y="0">me</tspan></text>
</svg>